<svg xmlns="http://www.w3.org/2000/svg">
  <symbol id="instagram" width="20" height="20" viewBox="0 0 20 20" fill="none" xmlns="http://www.w3.org/2000/svg">
    <path d="M10 5.30612C9.07164 5.30612 8.16413 5.58141 7.39222 6.09718C6.62032 6.61295 6.01869 7.34604 5.66342 8.20373C5.30815 9.06143 5.2152 10.0052 5.39631 10.9157C5.57743 11.8263 6.02448 12.6626 6.68093 13.3191C7.33738 13.9755 8.17375 14.4226 9.08427 14.6037C9.99479 14.7848 10.9386 14.6918 11.7963 14.3366C12.654 13.9813 13.387 13.3797 13.9028 12.6078C14.4186 11.8359 14.6939 10.9284 14.6939 10C14.6925 8.75554 14.1975 7.56245 13.3175 6.68248C12.4376 5.80251 11.2445 5.30753 10 5.30612ZM10 13.4694C9.31382 13.4694 8.64305 13.2659 8.07251 12.8847C7.50197 12.5035 7.05729 11.9616 6.7947 11.3277C6.53211 10.6937 6.46341 9.99615 6.59728 9.32316C6.73114 8.65016 7.06157 8.03197 7.54677 7.54677C8.03197 7.06157 8.65016 6.73114 9.32316 6.59728C9.99615 6.46341 10.6937 6.53211 11.3277 6.7947C11.9616 7.05729 12.5035 7.50197 12.8847 8.07251C13.2659 8.64305 13.4694 9.31382 13.4694 10C13.4683 10.9198 13.1025 11.8017 12.4521 12.4521C11.8017 13.1025 10.9198 13.4683 10 13.4694ZM14.4898 0H5.5102C4.04932 0.00167443 2.64875 0.58275 1.61575 1.61575C0.58275 2.64875 0.00167443 4.04932 0 5.5102V14.4898C0.00167443 15.9507 0.58275 17.3512 1.61575 18.3843C2.64875 19.4173 4.04932 19.9983 5.5102 20H14.4898C15.9507 19.9983 17.3512 19.4173 18.3843 18.3843C19.4173 17.3512 19.9983 15.9507 20 14.4898V5.5102C19.9983 4.04932 19.4173 2.64875 18.3843 1.61575C17.3512 0.58275 15.9507 0.00167443 14.4898 0ZM18.7755 14.4898C18.7742 15.626 18.3223 16.7154 17.5189 17.5189C16.7154 18.3223 15.626 18.7742 14.4898 18.7755H5.5102C4.37395 18.7742 3.2846 18.3223 2.48115 17.5189C1.6777 16.7154 1.22576 15.626 1.22449 14.4898V5.5102C1.22576 4.37395 1.6777 3.2846 2.48115 2.48115C3.2846 1.6777 4.37395 1.22576 5.5102 1.22449H14.4898C15.626 1.22576 16.7154 1.6777 17.5189 2.48115C18.3223 3.2846 18.7742 4.37395 18.7755 5.5102V14.4898ZM16.3265 4.69388C16.3265 4.8957 16.2667 5.09298 16.1546 5.26079C16.0424 5.42859 15.8831 5.55938 15.6966 5.63661C15.5102 5.71384 15.305 5.73405 15.1071 5.69468C14.9091 5.65531 14.7273 5.55812 14.5846 5.41542C14.4419 5.27271 14.3447 5.09089 14.3053 4.89295C14.2659 4.69501 14.2862 4.48984 14.3634 4.30338C14.4406 4.11693 14.5714 3.95756 14.7392 3.84544C14.907 3.73332 15.1043 3.67347 15.3061 3.67347C15.5767 3.67379 15.836 3.7814 16.0273 3.9727C16.2186 4.16399 16.3262 4.42335 16.3265 4.69388Z" fill="black"/>
  </symbol>
    <symbol id="vkontakte" width="31" height="20" viewBox="0 0 31 20" fill="none" xmlns="http://www.w3.org/2000/svg">
  <path d="M0 2.75148C0 1.74556 0.592227 1.20316 1.77668 1.12426L6.34091 1.15385C6.64723 1.15385 6.85145 1.30178 6.95356 1.59763C7.42325 3.07692 7.94911 4.35404 8.53113 5.42899C9.11314 6.50394 9.87385 7.74162 10.8132 9.14201C10.8949 9.31953 11.0277 9.40828 11.2115 9.40828C11.3544 9.40828 11.4667 9.33925 11.5484 9.20118L11.6403 8.87574L11.6709 3.7574C11.6709 3.40237 11.5842 3.16568 11.4106 3.04734C11.237 2.92899 10.9153 2.84024 10.4457 2.78107C10.0781 2.72189 9.89427 2.50493 9.89427 2.13018C9.89427 2.05128 9.90448 1.99211 9.9249 1.95266C10.3538 0.670612 11.5791 0.0295858 13.6008 0.0295858L15.3162 0C16.0922 0 16.7355 0.187377 17.246 0.56213C17.7566 0.936884 18.0119 1.5286 18.0119 2.33728V9.05325C18.1548 9.15187 18.2875 9.20118 18.4101 9.20118C18.7164 9.20118 18.9819 9.02367 19.2065 8.66864C21.4529 5.63116 22.668 3.59961 22.8518 2.57396C22.8518 2.55424 22.8722 2.50493 22.913 2.42604C23.056 2.13018 23.2908 1.87377 23.6176 1.6568C23.9443 1.43984 24.2302 1.29191 24.4753 1.21302C24.557 1.17357 24.6489 1.15385 24.751 1.15385H29.499L29.8053 1.18343C30.2138 1.18343 30.5303 1.37081 30.7549 1.74556C30.8366 1.86391 30.8928 1.99211 30.9234 2.13018C30.9541 2.26824 30.9745 2.40631 30.9847 2.54438C30.9949 2.68245 31 2.76134 31 2.78107V2.98817C30.857 3.79684 30.4946 4.65976 29.9125 5.57692C29.3305 6.49408 28.5903 7.48521 27.6917 8.5503C26.7931 9.61539 26.2316 10.3156 26.0069 10.6509C25.8231 10.8876 25.7312 11.1045 25.7312 11.3018C25.7312 11.4596 25.8129 11.6371 25.9763 11.8343L30.4486 17.2781C30.6937 17.5937 30.8162 17.9389 30.8162 18.3136C30.8162 18.7673 30.6324 19.142 30.2648 19.4379C29.8972 19.7337 29.4582 19.9014 28.9476 19.9408L28.4269 19.9704H23.7708C23.7503 19.9704 23.7095 19.9753 23.6482 19.9852C23.587 19.9951 23.5461 20 23.5257 20C23.0764 20 22.6578 19.8126 22.2698 19.4379C22.1268 19.2801 21.167 18.1164 19.3903 15.9467C19.2882 15.8087 19.1453 15.6805 18.9615 15.5621C18.8798 15.8777 18.7726 16.3314 18.6398 16.9231C18.5071 17.5148 18.4101 17.9389 18.3488 18.1953L18.2569 18.6982C18.0527 19.3886 17.6238 19.8028 16.9704 19.9408L16.5415 19.9704H13.5395C11.8445 19.9704 10.1546 19.2209 8.46986 17.7219C6.78508 16.2229 5.26877 14.285 3.92095 11.9083C2.57312 9.53156 1.31719 6.76529 0.153162 3.60947C0.051054 3.35306 0 3.06706 0 2.75148ZM18.4101 10.4142C17.9812 10.4142 17.5932 10.3008 17.246 10.074C16.8989 9.84714 16.7253 9.53649 16.7253 9.14201V2.33728C16.7253 1.9428 16.6232 1.66174 16.419 1.49408C16.2148 1.32643 15.8574 1.2426 15.3468 1.2426L13.6008 1.30178C12.7227 1.30178 12.059 1.4497 11.6097 1.74556C12.5082 2.15976 12.9575 2.83037 12.9575 3.7574V8.9645C12.9167 9.45759 12.7125 9.86686 12.3449 10.1923C11.9773 10.5178 11.5688 10.6805 11.1196 10.6805C10.5069 10.6805 10.0372 10.3945 9.71047 9.82248C8.11759 7.49507 6.93314 5.286 6.15711 3.19527L5.88142 2.42604L1.80731 2.39645C1.54183 2.39645 1.39377 2.41124 1.36314 2.44083C1.33251 2.47041 1.31719 2.55424 1.31719 2.69231C1.31719 2.86982 1.33762 3.0572 1.37846 3.25444L2.02174 4.91124C3.73715 9.19132 5.60063 12.5641 7.61215 15.0296C9.62368 17.4951 11.5995 18.7278 13.5395 18.7278H16.6028C16.7253 18.7278 16.8172 18.6933 16.8785 18.6243C16.9397 18.5552 16.9908 18.4221 17.0316 18.2249L17.0929 17.929L17.6749 15.3254C17.8383 14.9704 17.9812 14.7337 18.1038 14.6154C18.3284 14.3984 18.5939 14.2899 18.9002 14.2899C19.3903 14.2899 19.8906 14.5759 20.4012 15.1479L23.0049 18.3432C23.1683 18.5996 23.3419 18.7278 23.5257 18.7278H28.58C29.1927 18.7278 29.499 18.5799 29.499 18.284C29.499 18.1854 29.4684 18.0868 29.4071 17.9882L24.9654 12.6331C24.6182 12.2189 24.4447 11.7751 24.4447 11.3018C24.4447 10.8284 24.608 10.3748 24.9348 9.94083C25.2003 9.54635 25.7159 8.89053 26.4817 7.97337C27.2475 7.05621 27.9163 6.19823 28.4881 5.39941C29.0599 4.60059 29.4377 3.87574 29.6215 3.22485L29.7134 2.84024C29.693 2.80079 29.6828 2.73669 29.6828 2.64793C29.6828 2.55917 29.6726 2.48521 29.6522 2.42604H24.8429C24.5366 2.54438 24.2915 2.72189 24.1077 2.95858L23.9239 3.52071C23.4134 4.88166 22.0758 6.98225 19.9111 9.82248C19.4822 10.217 18.9819 10.4142 18.4101 10.4142Z" fill="black"/>
  </symbol>
  <symbol id="facebook" width="23" height="23" viewBox="0 0 23 23" fill="none" xmlns="http://www.w3.org/2000/svg">
  <path d="M16.2917 1.91667H13.4167C12.1458 1.91667 10.9271 2.4215 10.0284 3.32011C9.12983 4.21873 8.625 5.43751 8.625 6.70833V9.58333H5.75V13.4167H8.625V21.0833H12.4583V13.4167H15.3333L16.2917 9.58333H12.4583V6.70833C12.4583 6.45417 12.5593 6.21041 12.739 6.03069C12.9187 5.85097 13.1625 5.75 13.4167 5.75H16.2917V1.91667Z" stroke="black" stroke-linecap="round" stroke-linejoin="round"/>
  </symbol>
  <symbol id="mail" width="33" height="26" viewBox="0 0 33 26" fill="none" xmlns="http://www.w3.org/2000/svg">
<path d="M28.071 9.234V8.98642L27.8516 9.10104L16.6912 14.9304C16.5956 14.9803 16.489 15.0094 16.3794 15.0153C16.2709 15.0212 16.1626 15.0041 16.0624 14.9655L15.9809 14.929L4.82446 9.10038L4.605 8.98573V9.23333V19.5C4.605 20.0286 4.82618 20.5339 5.21714 20.9051C5.60783 21.2762 6.13614 21.4833 6.6855 21.4833H25.9905C26.5399 21.4833 27.0682 21.2762 27.4589 20.9051C27.8498 20.5339 28.071 20.0286 28.071 19.5V9.234ZM4.605 7.33267V7.42355L4.68556 7.46563L16.2686 13.515L16.338 13.5512L16.4074 13.515L27.9904 7.46496L28.071 7.42288V7.332V6.5C28.071 5.97141 27.8498 5.46615 27.4589 5.09487C27.0682 4.72384 26.5399 4.51667 25.9905 4.51667H6.6855C6.13614 4.51667 5.60783 4.72384 5.21714 5.09487C4.82618 5.46615 4.605 5.97141 4.605 6.5V7.33267ZM25.9905 3.15C27.9509 3.15 29.526 4.65671 29.526 6.5V19.5C29.526 21.3433 27.9509 22.85 25.9905 22.85H6.6855C5.7454 22.85 4.84526 22.4953 4.18275 21.8661C3.5205 21.2372 3.15 20.3859 3.15 19.5V6.5C3.15 4.65671 4.72515 3.15 6.6855 3.15H25.9905Z" fill="black" stroke="#FFFAF3" stroke-width="0.3"/>
<rect x="1.5" y="1.5" width="30" height="23" stroke="#FFFAF3" stroke-width="3"/>
</symbol>
<symbol id="quotes" width="16" height="10" viewBox="0 0 16 10" fill="none" xmlns="http://www.w3.org/2000/svg">
<path d="M1.42045 9.13797C0.496216 8.33809 1.30102e-06 7.44096 1.04675e-06 5.98669C5.9931e-07 3.42765 2.2047 1.13402 5.4108 -9.46054e-07L6.2121 1.00753C3.21956 2.32653 2.63451 4.03817 2.40121 5.11735C2.88307 4.91409 3.51388 4.84317 4.13213 4.88996C5.75088 5.01206 7.02686 6.0949 7.02686 7.44096C7.02686 8.11966 6.69598 8.77056 6.107 9.25048C5.51803 9.73039 4.71921 10 3.88627 10C3.42564 9.99672 2.97041 9.91882 2.54708 9.77083C2.12375 9.62283 1.74078 9.40771 1.42045 9.13797ZM10.3936 9.13797C9.46935 8.33809 8.97314 7.44096 8.97314 5.98669C8.97314 3.42765 11.1778 1.13402 14.3839 -2.51497e-06L15.1852 1.00753C12.1927 2.32653 11.6076 4.03816 11.3743 5.11735C11.8562 4.91409 12.487 4.84317 13.1053 4.88996C14.724 5.01206 16 6.0949 16 7.44096C16 8.11966 15.6691 8.77056 15.0801 9.25047C14.4912 9.73039 13.6923 10 12.8594 10C12.3988 9.99672 11.9435 9.91882 11.5202 9.77082C11.0969 9.62283 10.7139 9.40771 10.3936 9.13797Z" fill="black" fill-opacity="0.7"/>
</symbol>
</svg>
