<svg width="140" height="39" viewBox="0 0 140 39" fill="none" xmlns="http://www.w3.org/2000/svg">
<path d="M24.4009 20.323C24.3814 20.3016 24.3644 20.2834 24.3447 20.262H24.3425L15.8091 11.3801L22.9044 3.93261H22.9091C22.9599 3.87722 23.0046 3.82962 23.054 3.77602L24.7508 1.99496C26.0606 0.685452 26.3593 0.587061 26.3593 0.587061H26.0922H25.9723H24.6274H21.7307L13.8669 9.29322L6.0989 0.587061H3.1052H1.76006H1.70539H1.37306C1.37306 0.587061 1.79248 0.72065 3.84972 2.88729L4.71433 3.81462C4.75182 3.85562 4.78501 3.89102 4.82328 3.93261H4.82445L11.7977 11.4127L3.45764 20.262H3.45022C3.32565 20.3982 3.21103 20.5214 3.09505 20.6468L2.22693 21.5679C0.389933 23.4784 0 23.6078 0 23.6078H0.304409H0.387003H1.73214H4.66629L13.8351 13.5321L23.0679 23.6078H26.0629H27.4079H27.5567H27.7949C27.7949 23.6078 27.5473 23.5254 26.5216 22.5302L24.4009 20.323Z" fill="black"/>
<path d="M138.09 12.2931C136.816 11.2282 135.012 10.576 132.677 10.3366L125.705 9.65188C125.026 9.58648 124.464 9.50509 124.018 9.40729C123.572 9.3093 123.105 9.15751 122.617 8.95073C122.129 8.74434 121.762 8.44017 121.519 8.0378C121.274 7.63583 121.153 7.14086 121.153 6.55411C121.153 5.81536 121.375 5.17961 121.821 4.64645C122.267 4.11409 122.866 3.71712 123.62 3.45634C124.373 3.19535 125.153 3.00557 125.96 2.88578C126.766 2.76658 127.626 2.70639 128.539 2.70639C130.427 2.70639 132.009 2.96737 133.282 3.48893C133.433 3.55073 133.583 3.61692 133.731 3.68612L133.729 3.68692C136.64 5.15641 136.179 6.13114 136.179 6.13114L136.534 5.97315L137.776 5.44479L137.775 5.44159L139.745 4.63025C137.623 1.54388 133.876 -9.53674e-06 128.507 -9.53674e-06C125.344 -9.53674e-06 122.872 0.500353 121.089 1.50008C119.009 2.6304 117.969 4.36947 117.969 6.71709C117.969 8.28218 118.499 9.56528 119.561 10.5648C120.091 11.0652 120.754 11.4563 121.551 11.7387C122.346 12.0215 123.1 12.2115 123.811 12.3093C124.522 12.4071 125.79 12.5431 127.615 12.7168L131.054 13.0428C131.86 13.1082 132.545 13.1954 133.107 13.3038C133.669 13.4128 134.269 13.5922 134.906 13.8418C135.543 14.0919 136.025 14.4561 136.354 14.9341C136.683 15.4127 136.848 15.9994 136.848 16.695C136.848 17.9559 136.339 18.9888 135.32 19.7925C133.983 20.836 131.977 21.3578 129.303 21.3578C126.756 21.3578 124.601 20.9884 122.84 20.2493C122.556 20.1333 122.293 20.0121 122.043 19.8875C121.733 19.7273 121.457 19.5721 121.223 19.425C121.221 19.4238 121.219 19.423 121.218 19.4218C119.358 18.2512 119.71 17.5053 119.71 17.5053L119.355 17.6631L118.114 18.1914L116.313 18.9448C117.375 20.7277 119.051 22.0426 121.344 22.8903C123.636 23.7382 126.183 24.162 128.984 24.162C131.064 24.162 132.858 23.939 134.365 23.4935C135.872 23.0483 137.018 22.4501 137.803 21.7004C138.588 20.9502 139.151 20.1625 139.491 19.3362C139.83 18.5102 140 17.6193 140 16.6624C140 14.8149 139.363 13.3584 138.09 12.2931Z" fill="black"/>
<path d="M54.3535 0.587061H53.0084H51.3047C51.3047 1.3696 51.3366 7.70673 51.4004 19.5971L33.922 0.587061H30.6429V20.262C30.6429 23.4344 30.2559 23.6078 30.2559 23.6078H30.6429H31.988H33.6991C33.6991 22.4778 33.6778 16.1299 33.6354 4.56517L51.2411 23.6078H54.3611V3.24166C54.4131 0.74045 54.7403 0.587061 54.7403 0.587061H54.3611H54.3535Z" fill="black"/>
<path d="M90.099 0.587061H89.7129H89.7121H88.367H88.0288H86.6839H86.6829H86.2969C86.2969 0.587061 86.6731 0.761648 86.6829 3.81662V20.3782C86.6731 23.4332 86.2969 23.6078 86.2969 23.6078H86.6829H86.6839H88.0288H88.367H89.7121H89.7129H90.099C90.099 23.6078 89.7227 23.4332 89.7129 20.3782V3.81662C89.7227 0.761648 90.099 0.587061 90.099 0.587061Z" fill="black"/>
<path d="M110.612 20.5044H98.4327V3.93266H98.4346C98.4346 0.760494 98.8216 0.587107 98.8216 0.587107H98.4346H98.4327H97.0897H96.7515H95.4065H95.3966H95.0195C95.0195 0.587107 95.3384 0.738295 95.3966 3.14712V21.0476C95.3384 23.4564 95.0195 23.6076 95.0195 23.6076H95.3966H95.4065H96.7515H113.512V21.8849V20.5072V20.5044V20.1111C113.512 20.1111 113.349 20.4738 110.612 20.5044Z" fill="black"/>
<path d="M64.7825 15.293L70.3857 3.88022L75.8935 15.293H64.7825ZM82.0395 20.262H82.0186L72.1686 0.587061H68.7621L58.2549 21.3455C57.089 23.4744 56.7275 23.6078 56.7275 23.6078H57.1099H57.1143H58.4595H60.7073L63.4454 17.9342H77.2625L80.0004 23.6078H82.4076H83.6935H83.7527H84.1395C84.1395 23.6078 83.6639 23.4344 82.0395 20.262Z" fill="black"/>
<path d="M31.237 36.5448C30.9381 36.3712 30.7014 36.1246 30.5267 35.8056C30.3519 35.4866 30.2646 35.1221 30.2646 34.7123C30.2646 34.2815 30.3568 33.9081 30.5419 33.5916C30.7266 33.2752 30.9686 33.0352 31.2675 32.872C31.5662 32.7084 31.8878 32.6268 32.2325 32.6268C32.5213 32.6268 32.7845 32.6772 33.0225 32.7782C33.2605 32.8796 33.4493 33.021 33.5887 33.2026C33.728 33.3844 33.7975 33.5892 33.7975 33.8172C33.7975 33.9885 33.7545 34.1197 33.6684 34.2103C33.5821 34.3011 33.4683 34.3463 33.3265 34.3463C33.1896 34.3463 33.0758 34.2997 32.9848 34.2063C32.8934 34.1129 32.8477 33.9961 32.8477 33.8562C32.9239 33.8044 32.977 33.7474 33.0074 33.685C33.0379 33.6228 33.0529 33.545 33.0529 33.4516C33.0529 33.2598 32.9782 33.1026 32.8288 32.9808C32.6796 32.8588 32.4806 32.7978 32.2325 32.7978C31.8677 32.7978 31.5879 32.9314 31.3929 33.1986C31.1978 33.466 31.1004 33.8408 31.1004 34.3231V35.1013C31.1004 35.5632 31.1954 35.934 31.3852 36.214C31.5754 36.4944 31.8576 36.6343 32.2325 36.6343C32.5769 36.6343 32.8768 36.5346 33.133 36.3348C33.3884 36.135 33.5469 35.8718 33.6077 35.5448H33.7824C33.7114 35.9288 33.5354 36.2348 33.2543 36.4632C32.9733 36.6915 32.6324 36.8055 32.2325 36.8055C31.8677 36.8055 31.536 36.7187 31.237 36.5448Z" fill="black"/>
<path d="M36.2757 36.7278V36.572L36.8836 36.4944V32.8914H36.2302L35.5693 34.1751H35.3564L35.4705 32.6967H39.0566L39.1706 34.1751H38.9578L38.2892 32.8914H37.6435V36.4944L38.2514 36.572V36.7278H36.2757Z" fill="black"/>
<path d="M40.8942 38.7978C40.732 38.6628 40.6509 38.4812 40.6509 38.2529C40.6509 38.0975 40.6953 37.9715 40.7841 37.8755C40.8726 37.7795 40.9827 37.7317 41.1145 37.7317C41.2106 37.7317 41.2969 37.7523 41.3728 37.7939C41.449 37.8353 41.5097 37.8977 41.5552 37.9805C41.4792 38.0897 41.4412 38.2035 41.4412 38.3231C41.4412 38.4268 41.4742 38.5124 41.5402 38.5798C41.6058 38.647 41.6893 38.681 41.7907 38.681C41.9123 38.681 42.0174 38.6394 42.106 38.5564C42.1945 38.4734 42.2745 38.328 42.3454 38.1207L42.8013 36.7822L41.0385 32.938L40.5293 32.8603V32.7045H42.4214V32.8603L41.8895 32.9536L43.1583 35.7318L44.0625 33.0546L43.4092 32.8603V32.7045H44.7766V32.8603L44.2599 33.0546L42.558 38.1207C42.4518 38.4268 42.3237 38.6498 42.1745 38.7898C42.025 38.9302 41.811 39 41.5323 39C41.2689 39 41.0563 38.9326 40.8942 38.7978Z" fill="black"/>
<path d="M48.5143 32.8915H47.2527L47.1695 34.1208C47.1338 34.6707 47.0934 35.0767 47.0479 35.3387C47.0022 35.6009 46.9463 35.82 46.8807 35.9964C46.835 36.1106 46.7856 36.2076 46.7325 36.2882C46.6794 36.3684 46.6337 36.427 46.5957 36.4632C46.5578 36.4994 46.5336 36.523 46.5236 36.5334H48.5143V32.8915ZM49.9274 38.0119H49.7145L49.0462 36.7278H46.5994L45.9384 38.0119H45.7256L45.8398 36.5334H46.0827C46.1942 36.5334 46.3034 36.484 46.4096 36.3852C46.5158 36.2868 46.6095 36.1442 46.6907 35.9574C46.7616 35.7863 46.8184 35.5735 46.8616 35.3193C46.9046 35.0651 46.944 34.6657 46.9793 34.1208L47.0403 33.187L46.3489 32.8525V32.6967H49.8057V32.8525L49.274 32.9301V36.5334H49.8135L49.9274 38.0119Z" fill="black"/>
<path d="M51.3896 36.7278V36.572L51.9217 36.4944V32.93L51.3896 32.8524V32.6967H53.1374V32.8524L52.6813 32.93V35.9574L54.6038 33.0858V32.93L54.1477 32.8524V32.6967H55.8954V32.8524L55.3634 32.93V36.4944L55.8954 36.572V36.7278H54.1477V36.572L54.6038 36.4944V33.4126L52.6813 36.292V36.4944L53.1374 36.572V36.7278H51.3896Z" fill="black"/>
<path d="M60.3308 34.6812V32.8915H59.6925C59.3988 32.8915 59.1821 32.9589 59.0427 33.0937C58.9035 33.2287 58.834 33.4439 58.834 33.7396V33.8406C58.834 34.1312 58.9048 34.344 59.0466 34.4788C59.1884 34.6138 59.3834 34.6812 59.6316 34.6812H60.3308ZM57.679 36.716C57.5472 36.6566 57.4334 36.5696 57.3369 36.4554L57.4511 36.3386C57.5423 36.432 57.6308 36.4786 57.7169 36.4786C57.793 36.4786 57.8501 36.4504 57.8881 36.393C57.926 36.3362 57.9625 36.222 57.9983 36.0509L58.0818 35.5995C58.1273 35.3453 58.2109 35.1559 58.3323 35.0313C58.454 34.9067 58.6516 34.8239 58.9251 34.7822V34.7434C58.6567 34.6966 58.4376 34.5956 58.2677 34.4398C58.0982 34.2842 58.0133 34.056 58.0133 33.755C58.0133 33.4075 58.1273 33.1443 58.3552 32.9653C58.5831 32.7863 58.9529 32.6967 59.4646 32.6967H61.6377V32.8603L61.0906 32.9381V36.4866L61.6377 36.572V36.7278H59.7837V36.572L60.3308 36.4866V34.8755H59.6316C59.4139 34.8755 59.2454 34.9249 59.1265 35.0237C59.0074 35.1221 58.93 35.2855 58.8947 35.5139L58.7809 36.1754C58.7402 36.4036 58.6668 36.5656 58.5604 36.6616C58.454 36.7576 58.2894 36.8056 58.0664 36.8056C57.9399 36.8056 57.8108 36.7758 57.679 36.716Z" fill="black"/>
<path d="M65.8691 36.7278V36.572L66.4465 36.3386V32.9224L65.9146 32.8524V32.6967H67.3886L68.5893 35.6072L69.7819 32.6967H71.1802V32.8524L70.6481 32.93V36.4944L71.1802 36.572V36.7278H69.4324V36.572L69.8885 36.4944V32.9536L68.3155 36.7278H68.2244L66.6365 32.9536V36.3386L67.2139 36.572V36.7278H65.8691Z" fill="black"/>
<path d="M74.6844 36.3386C74.8287 36.2556 74.9515 36.135 75.0529 35.9768C75.1542 35.8184 75.2149 35.628 75.2352 35.4048V34.5955H74.726C74.3107 34.5955 74.0006 34.6903 73.7954 34.8797C73.5904 35.0689 73.4877 35.3348 73.4877 35.677C73.4877 35.9624 73.5535 36.165 73.6851 36.2842C73.8169 36.4036 74.0094 36.4632 74.2629 36.4632C74.3995 36.4632 74.5399 36.4218 74.6844 36.3386ZM73.0472 36.5448C72.8394 36.3712 72.7354 36.113 72.7354 35.7704C72.7354 35.2828 72.9355 34.9367 73.3358 34.7319C73.7357 34.5267 74.1992 34.4243 74.726 34.4243H75.2352V33.8252C75.2352 33.5554 75.206 33.3464 75.148 33.1986C75.0896 33.0508 74.9998 32.9472 74.8781 32.8874C74.7565 32.8278 74.5919 32.7978 74.3841 32.7978C74.1461 32.7978 73.9688 32.8458 73.8524 32.9418C73.7357 33.0378 73.6777 33.1664 73.6777 33.327C73.6777 33.4776 73.7485 33.5762 73.8903 33.6228C73.8903 33.7524 73.8423 33.8666 73.7462 33.9653C73.6497 34.0637 73.5357 34.1129 73.4041 34.1129C73.2622 34.1129 73.1481 34.0729 73.0622 33.9925C72.9761 33.9121 72.9331 33.789 72.9331 33.6228C72.9331 33.322 73.08 33.0808 73.3737 32.8992C73.6675 32.7174 74.0346 32.6268 74.4753 32.6268C75.4883 32.6268 75.9952 33.0782 75.9952 33.9807V36.2062C75.9952 36.3204 76.019 36.4074 76.0672 36.4672C76.1151 36.5266 76.185 36.5566 76.2762 36.5566C76.3623 36.5566 76.4306 36.5266 76.4814 36.4672C76.5318 36.4074 76.5573 36.3258 76.5573 36.222H76.7167C76.7167 36.4036 76.6597 36.5462 76.5458 36.6497C76.4318 36.7535 76.2734 36.8055 76.071 36.8055C75.8378 36.8055 75.6418 36.7367 75.4821 36.5993C75.3227 36.4618 75.2401 36.248 75.2352 35.9574C75.1136 36.222 74.9273 36.4296 74.6768 36.58C74.4261 36.7303 74.1486 36.8055 73.8448 36.8055C73.5207 36.8055 73.2547 36.7187 73.0472 36.5448Z" fill="black"/>
<path d="M78.1738 36.7278V36.572L78.7057 36.4944V32.93L78.1738 32.8524V32.6967H79.9212V32.8524L79.4655 32.93V34.5879H81.3421V32.93L80.8864 32.8524V32.6967H82.6337V32.8524L82.102 32.93V36.4944L82.6337 36.572V36.7278H80.8864V36.572L81.3421 36.4944V34.7823H79.4655V36.4944L79.9212 36.572V36.7278H78.1738Z" fill="black"/>
<path d="M84.2119 36.7278V36.572L84.744 36.4944V32.93L84.2119 32.8524V32.6967H85.9597V32.8524L85.5036 32.93V35.9574L87.4261 33.0858V32.93L86.9699 32.8524V32.6967H88.7177V32.8524L88.1856 32.93V36.4944L88.7177 36.572V36.7278H86.9699V36.572L87.4261 36.4944V33.4126L85.5036 36.292V36.4944L85.9597 36.572V36.7278H84.2119Z" fill="black"/>
<path d="M93.3435 36.6616C93.2373 36.5656 93.1639 36.4036 93.1232 36.1754L92.9713 35.3503C92.9258 35.1065 92.8497 34.9353 92.7433 34.8367C92.637 34.7384 92.4928 34.6862 92.3102 34.6812H91.6035V36.4866L92.1509 36.572V36.7278H90.2969V36.572L90.844 36.4866V32.9381L90.2969 32.8603V32.6967H92.1509V32.8603L91.6035 32.9381V34.5022H92.318C92.4445 34.4918 92.5459 34.4464 92.6218 34.366C92.6976 34.2856 92.7608 34.147 92.8118 33.9496L92.9485 33.3895C93.0094 33.1353 93.0916 32.9445 93.1953 32.8173C93.2992 32.6903 93.4603 32.6269 93.678 32.6269C93.8602 32.6269 94.0021 32.6773 94.1034 32.7783C94.2048 32.8797 94.2552 33.0029 94.2552 33.1481C94.2552 33.2831 94.2136 33.3985 94.13 33.4944C94.0464 33.5904 93.9336 33.6382 93.792 33.6382C93.7159 33.6382 93.6424 33.6254 93.5716 33.5992C93.5868 33.5526 93.5942 33.5086 93.5942 33.4673C93.5942 33.3999 93.5739 33.3427 93.5337 33.2961C93.4931 33.2495 93.4425 33.2259 93.3816 33.2259C93.2599 33.2259 93.1789 33.2987 93.1385 33.4439L92.994 34.0042C92.9282 34.248 92.8423 34.4192 92.7357 34.5178C93.0701 34.549 93.3144 34.6318 93.469 34.7668C93.6235 34.9017 93.726 35.1065 93.7766 35.3815L93.9058 36.0509C93.9412 36.222 93.9779 36.3362 94.016 36.393C94.0538 36.4504 94.1111 36.4786 94.187 36.4786C94.2729 36.4786 94.3618 36.432 94.453 36.3386L94.567 36.4554C94.4705 36.5696 94.3565 36.6566 94.2251 36.716C94.0933 36.7758 93.964 36.8056 93.8375 36.8056C93.6145 36.8056 93.4501 36.7576 93.3435 36.6616Z" fill="black"/>
<path d="M100.855 36.222C101.048 35.9471 101.144 35.5733 101.144 35.1013V34.3232C101.144 33.846 101.048 33.4725 100.855 33.2027C100.662 32.9329 100.381 32.7979 100.012 32.7979C99.6418 32.7979 99.3608 32.9329 99.1683 33.2027C98.9759 33.4725 98.8795 33.846 98.8795 34.3232V35.1013C98.8795 35.5733 98.9759 35.9471 99.1683 36.222C99.3608 36.497 99.6418 36.6344 100.012 36.6344C100.381 36.6344 100.662 36.497 100.855 36.222ZM98.6061 36.2298C98.2465 35.8459 98.059 35.3635 98.0438 34.7824H97.3219V36.4944L97.778 36.572V36.7278H96.0303V36.572L96.5624 36.4944V32.9301L96.0303 32.8525V32.6967H97.778V32.8525L97.3219 32.9301V34.5878H98.0438C98.0639 34.1986 98.1629 33.8562 98.3402 33.5606C98.5173 33.2649 98.7518 33.0353 99.0431 32.8719C99.3342 32.7085 99.6572 32.6269 100.012 32.6269C100.377 32.6269 100.71 32.7151 101.011 32.8915C101.312 33.0677 101.549 33.3155 101.721 33.6346C101.893 33.9536 101.98 34.3128 101.98 34.7124C101.98 35.1119 101.893 35.4709 101.721 35.7899C101.549 36.1093 101.313 36.358 101.015 36.537C100.716 36.716 100.381 36.8056 100.012 36.8056C99.4647 36.8056 98.9961 36.6136 98.6061 36.2298Z" fill="black"/>
<path d="M106.955 35.1093V34.3309C106.955 33.3246 106.603 32.8213 105.899 32.8213C105.676 32.8213 105.474 32.8875 105.291 33.0198C105.109 33.152 104.965 33.3296 104.858 33.5526C104.752 33.776 104.696 34.017 104.691 34.2766V35.1093C104.691 35.3737 104.743 35.6217 104.847 35.8524C104.951 36.083 105.095 36.2674 105.28 36.4048C105.465 36.5424 105.671 36.611 105.899 36.611C106.603 36.611 106.955 36.1106 106.955 35.1093ZM103.399 38.7744L103.931 38.6964V32.938L103.399 32.8603V32.7045H104.691V33.5218C104.818 33.2414 104.989 33.0224 105.204 32.8641C105.419 32.7059 105.676 32.6269 105.975 32.6269C106.335 32.6269 106.652 32.7139 106.925 32.8875C107.198 33.0614 107.411 33.3052 107.563 33.6188C107.715 33.9328 107.791 34.2997 107.791 34.7201C107.791 35.1403 107.715 35.5073 107.563 35.8212C107.411 36.1352 107.198 36.3776 106.925 36.5488C106.652 36.72 106.335 36.8058 105.975 36.8058C105.676 36.8058 105.419 36.7264 105.204 36.5684C104.989 36.4102 104.818 36.1936 104.691 35.9186V38.6964L105.406 38.7744V38.9302H103.399V38.7744Z" fill="black"/>
<path d="M111.414 36.3386C111.558 36.2556 111.681 36.135 111.782 35.9768C111.884 35.8184 111.944 35.628 111.965 35.4048V34.5955H111.456C111.04 34.5955 110.73 34.6903 110.525 34.8797C110.32 35.0689 110.217 35.3348 110.217 35.677C110.217 35.9624 110.283 36.165 110.415 36.2842C110.546 36.4036 110.739 36.4632 110.992 36.4632C111.129 36.4632 111.269 36.4218 111.414 36.3386ZM109.777 36.5448C109.569 36.3712 109.465 36.113 109.465 35.7704C109.465 35.2828 109.665 34.9367 110.065 34.7319C110.465 34.5267 110.929 34.4243 111.456 34.4243H111.965V33.8252C111.965 33.5554 111.936 33.3464 111.877 33.1986C111.819 33.0508 111.729 32.9472 111.608 32.8874C111.486 32.8278 111.322 32.7978 111.114 32.7978C110.876 32.7978 110.698 32.8458 110.582 32.9418C110.465 33.0378 110.407 33.1664 110.407 33.327C110.407 33.4776 110.478 33.5762 110.62 33.6228C110.62 33.7524 110.572 33.8666 110.476 33.9653C110.379 34.0637 110.265 34.1129 110.134 34.1129C109.992 34.1129 109.878 34.0729 109.792 33.9925C109.706 33.9121 109.663 33.789 109.663 33.6228C109.663 33.322 109.809 33.0808 110.103 32.8992C110.397 32.7174 110.764 32.6268 111.205 32.6268C112.218 32.6268 112.725 33.0782 112.725 33.9807V36.2062C112.725 36.3204 112.749 36.4074 112.797 36.4672C112.845 36.5266 112.914 36.5566 113.006 36.5566C113.092 36.5566 113.16 36.5266 113.211 36.4672C113.261 36.4074 113.287 36.3258 113.287 36.222H113.446C113.446 36.4036 113.389 36.5462 113.276 36.6497C113.161 36.7535 113.003 36.8055 112.8 36.8055C112.567 36.8055 112.371 36.7367 112.212 36.5993C112.052 36.4618 111.97 36.248 111.965 35.9574C111.843 36.222 111.657 36.4296 111.406 36.58C111.156 36.7303 110.878 36.8055 110.574 36.8055C110.25 36.8055 109.984 36.7187 109.777 36.5448Z" fill="black"/>
</svg>
