<svg width="96" height="27" viewBox="0 0 96 27" fill="none" xmlns="http://www.w3.org/2000/svg">
<path d="M16.732 13.6065C16.7186 13.5922 16.7069 13.58 16.6934 13.5657H16.6919L10.8405 7.61916L15.7058 2.63305H15.7091C15.7439 2.59596 15.7745 2.56409 15.8084 2.52821L16.9719 1.33578C17.8701 0.459056 18.0749 0.393183 18.0749 0.393183H17.8917H17.8095H16.8873H14.901L9.50869 6.222L4.18209 0.393183H2.12927H1.2069H1.16941H0.941524C0.941524 0.393183 1.22912 0.482622 2.6398 1.9332L3.23267 2.55405C3.25838 2.5815 3.28114 2.6052 3.30738 2.63305H3.30818L8.08984 7.64098L2.37095 13.5657H2.36586C2.28044 13.6568 2.20184 13.7393 2.12231 13.8233L1.52703 14.44C0.267382 15.719 0 15.8057 0 15.8057H0.208737H0.265373H1.18775H3.19973L9.48686 9.05996L15.8179 15.8057H17.8717H18.7939H18.8959H19.0593C19.0593 15.8057 18.8895 15.7505 18.1862 15.0843L16.732 13.6065Z" fill="black"/>
<path d="M94.69 8.23045C93.8168 7.51748 92.5796 7.08086 90.9787 6.92059L86.1977 6.46215C85.7319 6.41837 85.3464 6.36387 85.0408 6.2984C84.7352 6.23279 84.4148 6.13117 84.0802 5.99273C83.7454 5.85455 83.4942 5.6509 83.3271 5.38151C83.1596 5.11239 83.076 4.78101 83.076 4.38818C83.076 3.89358 83.2288 3.46794 83.5345 3.11099C83.8402 2.75457 84.2512 2.4888 84.7679 2.3142C85.2843 2.13947 85.8192 2.01241 86.3726 1.93221C86.9255 1.85241 87.5149 1.81211 88.1407 1.81211C89.4359 1.81211 90.5204 1.98684 91.3935 2.33603C91.497 2.3774 91.5994 2.42172 91.701 2.46804L91.7 2.46858C93.6957 3.45241 93.3799 4.105 93.3799 4.105L93.6232 3.99922L94.4751 3.64548L94.4743 3.64334L95.8253 3.10014C94.3698 1.0338 91.8009 0.000160217 88.1189 0.000160217C85.9501 0.000160217 84.2549 0.335156 83.0324 1.00448C81.6059 1.76123 80.8929 2.92555 80.8929 4.4973C80.8929 5.54513 81.2566 6.40418 81.9846 7.07336C82.3481 7.40836 82.803 7.67025 83.349 7.85931C83.8946 8.04863 84.4112 8.17582 84.899 8.2413C85.3863 8.30677 86.2558 8.39782 87.5077 8.51417L89.8654 8.73241C90.4184 8.77619 90.8876 8.83457 91.2735 8.90714C91.659 8.98011 92.0703 9.10021 92.5069 9.2673C92.9435 9.4348 93.2744 9.67862 93.5001 9.99862C93.7257 10.319 93.8386 10.7119 93.8386 11.1775C93.8386 12.0217 93.4893 12.7133 92.7908 13.2514C91.8738 13.95 90.4984 14.2993 88.6647 14.2993C86.9182 14.2993 85.441 14.052 84.2331 13.5572C84.0387 13.4795 83.8578 13.3984 83.6866 13.315C83.4742 13.2077 83.2849 13.1038 83.1242 13.0053C83.123 13.0045 83.1218 13.0039 83.1208 13.0031C81.8453 12.2195 82.0868 11.7201 82.0868 11.7201L81.8436 11.8257L80.9924 12.1794L79.7578 12.6838C80.4854 13.8774 81.6352 14.7578 83.207 15.3253C84.7789 15.893 86.5252 16.1768 88.4464 16.1768C89.8726 16.1768 91.1023 16.0275 92.1358 15.7292C93.169 15.4311 93.9548 15.0306 94.4935 14.5287C95.0318 14.0265 95.4176 13.4991 95.6507 12.9458C95.8833 12.3929 95.9999 11.7964 95.9999 11.1557C95.9999 9.91882 95.5631 8.94369 94.69 8.23045Z" fill="black"/>
<path d="M37.2711 0.393183H36.3487H35.1805C35.1805 0.917099 35.2024 5.15984 35.2461 13.1205L23.261 0.393183H21.0124V13.5657C21.0124 15.6896 20.7471 15.8057 20.7471 15.8057H21.0124H21.9348H23.1081C23.1081 15.0492 23.0935 10.7992 23.0645 3.05655L35.1369 15.8057H37.2763V2.17045C37.312 0.495877 37.5364 0.393183 37.5364 0.393183H37.2763H37.2711Z" fill="black"/>
<path d="M61.7829 0.393183H61.5182H61.5177H60.5953H60.3634H59.4412H59.4405H59.1758C59.1758 0.393183 59.4338 0.51007 59.4405 2.55539V13.6435C59.4338 15.6888 59.1758 15.8057 59.1758 15.8057H59.4405H59.4412H60.3634H60.5953H61.5177H61.5182H61.7829C61.7829 15.8057 61.5249 15.6888 61.5182 13.6435V2.55539C61.5249 0.51007 61.7829 0.393183 61.7829 0.393183Z" fill="black"/>
<path d="M75.848 13.7278H67.4967V2.63294H67.498C67.498 0.509156 67.7634 0.393072 67.7634 0.393072H67.498H67.4967H66.5758H66.3439H65.4216H65.4148H65.1562C65.1562 0.393072 65.3749 0.494294 65.4148 2.10701V14.0915C65.3749 15.7042 65.1562 15.8054 65.1562 15.8054H65.4148H65.4216H66.3439H77.8365V14.6521V13.7297V13.7278V13.4645C77.8365 13.4645 77.7249 13.7073 75.848 13.7278Z" fill="black"/>
<path d="M44.4228 10.2389L48.265 2.59797L52.0418 10.2389H44.4228ZM56.2561 13.5657H56.2418L49.4875 0.393183H47.1517L39.9467 14.2911C39.1472 15.7164 38.8994 15.8057 38.8994 15.8057H39.1616H39.1647H40.087H41.6284L43.5059 12.0072H52.9805L54.8579 15.8057H56.5085H57.3903H57.4309H57.6961C57.6961 15.8057 57.37 15.6896 56.2561 13.5657Z" fill="black"/>
<path d="M21.4207 24.467C21.2157 24.3508 21.0534 24.1857 20.9336 23.9721C20.8138 23.7586 20.7539 23.5145 20.7539 23.2402C20.7539 22.9518 20.8171 22.7018 20.944 22.4898C21.0707 22.278 21.2366 22.1174 21.4416 22.0081C21.6464 21.8986 21.8669 21.8439 22.1033 21.8439C22.3013 21.8439 22.4818 21.8777 22.645 21.9453C22.8082 22.0132 22.9377 22.1078 23.0333 22.2294C23.1287 22.3511 23.1764 22.4882 23.1764 22.6409C23.1764 22.7556 23.1469 22.8434 23.0879 22.9041C23.0287 22.9649 22.9507 22.9951 22.8535 22.9951C22.7596 22.9951 22.6815 22.9639 22.6191 22.9014C22.5565 22.8389 22.5252 22.7607 22.5252 22.667C22.5774 22.6323 22.6138 22.5941 22.6347 22.5524C22.6556 22.5107 22.6659 22.4586 22.6659 22.3961C22.6659 22.2677 22.6146 22.1625 22.5122 22.0809C22.4099 21.9993 22.2734 21.9584 22.1033 21.9584C21.8532 21.9584 21.6613 22.0479 21.5275 22.2267C21.3938 22.4058 21.327 22.6567 21.327 22.9796V23.5006C21.327 23.8099 21.3922 24.0581 21.5223 24.2456C21.6527 24.4333 21.8462 24.527 22.1033 24.527C22.3394 24.527 22.5451 24.4602 22.7208 24.3264C22.8959 24.1927 23.0046 24.0165 23.0463 23.7976H23.1661C23.1174 24.0546 22.9967 24.2595 22.8039 24.4124C22.6112 24.5653 22.3775 24.6416 22.1033 24.6416C21.8532 24.6416 21.6257 24.5835 21.4207 24.467Z" fill="black"/>
<path d="M24.8755 24.5896V24.4853L25.2923 24.4333V22.0212H24.8443L24.3911 22.8806H24.2451L24.3233 21.8908H26.7824L26.8605 22.8806H26.7146L26.2562 22.0212H25.8134V24.4333L26.2302 24.4853V24.5896H24.8755Z" fill="black"/>
<path d="M28.0422 25.9755C27.931 25.8851 27.8754 25.7635 27.8754 25.6106C27.8754 25.5066 27.9058 25.4222 27.9667 25.358C28.0274 25.2937 28.1029 25.2617 28.1933 25.2617C28.2591 25.2617 28.3183 25.2755 28.3704 25.3033C28.4226 25.3311 28.4643 25.3728 28.4955 25.4283C28.4434 25.5014 28.4173 25.5776 28.4173 25.6576C28.4173 25.7271 28.4399 25.7844 28.4851 25.8295C28.5301 25.8745 28.5874 25.8973 28.6569 25.8973C28.7403 25.8973 28.8124 25.8694 28.8732 25.8139C28.9338 25.7583 28.9887 25.661 29.0373 25.5221L29.3499 24.626L28.1412 22.0523L27.792 22.0002V21.8959H29.0894V22.0002L28.7247 22.0628L29.5947 23.9228L30.2148 22.1304L29.7668 22.0002V21.8959H30.7044V22.0002L30.3501 22.1304L29.1831 25.5221C29.1103 25.7271 29.0225 25.8764 28.9202 25.9701C28.8176 26.0641 28.6709 26.1108 28.4798 26.1108C28.2992 26.1108 28.1534 26.0657 28.0422 25.9755Z" fill="black"/>
<path d="M33.2667 22.0211H32.4017L32.3446 22.8441C32.3201 23.2123 32.2924 23.4841 32.2612 23.6595C32.2299 23.835 32.1916 23.9818 32.1466 24.0999C32.1153 24.1763 32.0814 24.2413 32.045 24.2952C32.0086 24.3489 31.9772 24.3881 31.9511 24.4124C31.9251 24.4366 31.9085 24.4524 31.9017 24.4594H33.2667V22.0211ZM34.2357 25.4492H34.0898L33.6314 24.5895H31.9537L31.5004 25.4492H31.3545L31.4328 24.4594H31.5994C31.6758 24.4594 31.7507 24.4263 31.8235 24.3601C31.8963 24.2943 31.9606 24.1988 32.0163 24.0738C32.0649 23.9591 32.1039 23.8167 32.1335 23.6465C32.1629 23.4763 32.19 23.209 32.2142 22.8441L32.256 22.219L31.7819 21.995V21.8907H34.1523V21.995L33.7877 22.0469V24.4594H34.1576L34.2357 25.4492Z" fill="black"/>
<path d="M35.2383 24.5896V24.4853L35.6031 24.4333V22.047L35.2383 21.9951V21.8908H36.4367V21.9951L36.124 22.047V24.0739L37.4423 22.1513V22.047L37.1295 21.9951V21.8908H38.328V21.9951L37.9631 22.047V24.4333L38.328 24.4853V24.5896H37.1295V24.4853L37.4423 24.4333V22.3701L36.124 24.2979V24.4333L36.4367 24.4853V24.5896H35.2383Z" fill="black"/>
<path d="M41.3694 23.2193V22.0211H40.9317C40.7303 22.0211 40.5817 22.0662 40.4861 22.1564C40.3906 22.2468 40.3429 22.3909 40.3429 22.5889V22.6565C40.3429 22.8511 40.3916 22.9935 40.4888 23.0838C40.586 23.1742 40.7197 23.2193 40.8899 23.2193H41.3694ZM39.551 24.5816C39.4606 24.5419 39.3825 24.4836 39.3164 24.4072L39.3947 24.329C39.4573 24.3915 39.5179 24.4227 39.577 24.4227C39.6292 24.4227 39.6683 24.4038 39.6944 24.3654C39.7204 24.3274 39.7454 24.2509 39.7699 24.1363L39.8272 23.8341C39.8584 23.6639 39.9157 23.5371 39.999 23.4537C40.0824 23.3703 40.2179 23.3149 40.4055 23.2869V23.2609C40.2214 23.2296 40.0712 23.162 39.9547 23.0577C39.8384 22.9535 39.7802 22.8007 39.7802 22.5992C39.7802 22.3665 39.8584 22.1903 40.0146 22.0705C40.1709 21.9507 40.4245 21.8907 40.7754 21.8907H42.2655V22.0002L41.8903 22.0523V24.428L42.2655 24.4852V24.5895H40.9942V24.4852L41.3694 24.428V23.3494H40.8899C40.7406 23.3494 40.6251 23.3825 40.5435 23.4486C40.4618 23.5145 40.4088 23.6239 40.3846 23.7768L40.3065 24.2197C40.2787 24.3725 40.2283 24.4809 40.1554 24.5452C40.0824 24.6095 39.9695 24.6416 39.8166 24.6416C39.7299 24.6416 39.6414 24.6217 39.551 24.5816Z" fill="black"/>
<path d="M45.167 24.5896V24.4853L45.5629 24.329V22.0419L45.1982 21.9951V21.8908H46.2089L47.0322 23.8394L47.85 21.8908H48.8088V21.9951L48.444 22.047V24.4333L48.8088 24.4853V24.5896H47.6104V24.4853L47.9231 24.4333V22.0628L46.8445 24.5896H46.782L45.6932 22.0628V24.329L46.0891 24.4853V24.5896H45.167Z" fill="black"/>
<path d="M51.2125 24.329C51.3114 24.2734 51.3956 24.1927 51.4651 24.0868C51.5346 23.9807 51.5763 23.8533 51.5902 23.7038V23.162H51.241C50.9562 23.162 50.7436 23.2254 50.6029 23.3522C50.4623 23.4789 50.3919 23.657 50.3919 23.8861C50.3919 24.0771 50.437 24.2127 50.5272 24.2925C50.6176 24.3725 50.7496 24.4124 50.9234 24.4124C51.0171 24.4124 51.1134 24.3847 51.2125 24.329ZM50.0898 24.467C49.9473 24.3508 49.876 24.1779 49.876 23.9486C49.876 23.6222 50.0132 23.3904 50.2877 23.2533C50.5619 23.1159 50.8798 23.0474 51.241 23.0474H51.5902V22.6462C51.5902 22.4656 51.5701 22.3257 51.5303 22.2267C51.4903 22.1278 51.4287 22.0584 51.3453 22.0184C51.2619 21.9785 51.149 21.9584 51.0066 21.9584C50.8433 21.9584 50.7218 21.9906 50.642 22.0548C50.5619 22.1191 50.5221 22.2052 50.5221 22.3127C50.5221 22.4135 50.5707 22.4795 50.6679 22.5107C50.6679 22.5975 50.635 22.6739 50.5691 22.7401C50.503 22.806 50.4248 22.8389 50.3346 22.8389C50.2372 22.8389 50.159 22.8121 50.1001 22.7583C50.0411 22.7045 50.0116 22.622 50.0116 22.5107C50.0116 22.3094 50.1123 22.1479 50.3137 22.0263C50.5152 21.9046 50.7669 21.8439 51.0691 21.8439C51.7637 21.8439 52.1113 22.1461 52.1113 22.7504V24.2403C52.1113 24.3168 52.1276 24.375 52.1607 24.4151C52.1935 24.4548 52.2414 24.4749 52.304 24.4749C52.363 24.4749 52.4099 24.4548 52.4447 24.4151C52.4792 24.375 52.4968 24.3204 52.4968 24.2509H52.606C52.606 24.3725 52.5669 24.4679 52.4889 24.5373C52.4107 24.6068 52.3021 24.6416 52.1632 24.6416C52.0034 24.6416 51.8689 24.5955 51.7594 24.5036C51.6502 24.4114 51.5935 24.2683 51.5902 24.0738C51.5068 24.2509 51.379 24.3899 51.2073 24.4906C51.0353 24.5913 50.8451 24.6416 50.6367 24.6416C50.4145 24.6416 50.2321 24.5835 50.0898 24.467Z" fill="black"/>
<path d="M53.6035 24.5896V24.4853L53.9682 24.4333V22.047L53.6035 21.9951V21.8908H54.8017V21.9951L54.4892 22.047V23.157H55.776V22.047L55.4635 21.9951V21.8908H56.6617V21.9951L56.2971 22.047V24.4333L56.6617 24.4853V24.5896H55.4635V24.4853L55.776 24.4333V23.2871H54.4892V24.4333L54.8017 24.4853V24.5896H53.6035Z" fill="black"/>
<path d="M57.7441 24.5896V24.4853L58.109 24.4333V22.047L57.7441 21.9951V21.8908H58.9426V21.9951L58.6298 22.047V24.0739L59.9481 22.1513V22.047L59.6354 21.9951V21.8908H60.8338V21.9951L60.469 22.047V24.4333L60.8338 24.4853V24.5896H59.6354V24.4853L59.9481 24.4333V22.3701L58.6298 24.2979V24.4333L58.9426 24.4853V24.5896H57.7441Z" fill="black"/>
<path d="M64.0061 24.5452C63.9333 24.4809 63.8829 24.3725 63.8551 24.2197L63.7509 23.6673C63.7197 23.5041 63.6675 23.3895 63.5945 23.3234C63.5217 23.2576 63.4227 23.2226 63.2975 23.2193H62.813V24.428L63.1883 24.4852V24.5895H61.917V24.4852L62.2922 24.428V22.0523L61.917 22.0002V21.8907H63.1883V22.0002L62.813 22.0523V23.0994H63.3029C63.3897 23.0925 63.4592 23.0621 63.5112 23.0083C63.5632 22.9544 63.6066 22.8617 63.6415 22.7295L63.7352 22.3545C63.777 22.1843 63.8334 22.0566 63.9045 21.9714C63.9757 21.8864 64.0862 21.8439 64.2355 21.8439C64.3604 21.8439 64.4577 21.8777 64.5272 21.9453C64.5967 22.0132 64.6312 22.0957 64.6312 22.1929C64.6312 22.2832 64.6027 22.3605 64.5454 22.4248C64.4881 22.489 64.4107 22.521 64.3136 22.521C64.2614 22.521 64.2111 22.5125 64.1625 22.4949C64.1729 22.4637 64.178 22.4343 64.178 22.4066C64.178 22.3614 64.1641 22.3231 64.1365 22.2919C64.1087 22.2607 64.074 22.2449 64.0322 22.2449C63.9488 22.2449 63.8932 22.2937 63.8655 22.3909L63.7664 22.7661C63.7213 22.9293 63.6624 23.0439 63.5893 23.1099C63.8186 23.1308 63.9861 23.1862 64.0922 23.2766C64.1981 23.367 64.2684 23.5041 64.3031 23.6882L64.3917 24.1363C64.4159 24.2509 64.4411 24.3274 64.4672 24.3654C64.4932 24.4038 64.5324 24.4227 64.5845 24.4227C64.6434 24.4227 64.7043 24.3915 64.7669 24.329L64.8451 24.4072C64.7789 24.4836 64.7007 24.5419 64.6106 24.5816C64.5202 24.6217 64.4316 24.6416 64.3448 24.6416C64.1919 24.6416 64.0792 24.6095 64.0061 24.5452Z" fill="black"/>
<path d="M69.1571 24.2509C69.2891 24.0668 69.3551 23.8166 69.3551 23.5006V22.9796C69.3551 22.6601 69.2891 22.41 69.1571 22.2294C69.0249 22.0488 68.8323 21.9584 68.5787 21.9584C68.3251 21.9584 68.1324 22.0488 68.0004 22.2294C67.8685 22.41 67.8024 22.6601 67.8024 22.9796V23.5006C67.8024 23.8166 67.8685 24.0668 68.0004 24.2509C68.1324 24.435 68.3251 24.527 68.5787 24.527C68.8323 24.527 69.0249 24.435 69.1571 24.2509ZM67.6149 24.2561C67.3683 23.9991 67.2398 23.6761 67.2293 23.287H66.7343V24.4333L67.0471 24.4852V24.5895H65.8486V24.4852L66.2135 24.4333V22.0469L65.8486 21.995V21.8907H67.0471V21.995L66.7343 22.0469V23.1567H67.2293C67.2431 22.8962 67.311 22.667 67.4326 22.4691C67.554 22.2711 67.7148 22.1174 67.9146 22.008C68.1142 21.8986 68.3357 21.8439 68.5787 21.8439C68.8289 21.8439 69.0573 21.903 69.2639 22.0211C69.4705 22.139 69.6328 22.3049 69.751 22.5186C69.8691 22.7322 69.9282 22.9726 69.9282 23.2402C69.9282 23.5077 69.8691 23.748 69.751 23.9616C69.6328 24.1754 69.4713 24.342 69.2666 24.4618C69.0615 24.5816 68.8323 24.6416 68.5787 24.6416C68.2036 24.6416 67.8823 24.5131 67.6149 24.2561Z" fill="black"/>
<path d="M73.3408 23.5061V22.985C73.3408 22.3112 73.0991 21.9742 72.6164 21.9742C72.4636 21.9742 72.3247 22.0186 72.1997 22.1072C72.0747 22.1957 71.9757 22.3146 71.9028 22.4639C71.8298 22.6134 71.7915 22.7748 71.788 22.9486V23.5061C71.788 23.6831 71.8236 23.8491 71.8949 24.0036C71.9661 24.158 72.0651 24.2814 72.1918 24.3734C72.3186 24.4655 72.4602 24.5115 72.6164 24.5115C73.0991 24.5115 73.3408 24.1765 73.3408 23.5061ZM70.9023 25.9599L71.2672 25.9077V22.0524L70.9023 22.0003V21.896H71.788V22.4433C71.8749 22.2555 71.9922 22.1089 72.1399 22.0029C72.2873 21.897 72.4636 21.8441 72.6686 21.8441C72.9153 21.8441 73.1324 21.9023 73.3199 22.0186C73.5073 22.135 73.6533 22.2983 73.7576 22.5082C73.8617 22.7184 73.9138 22.9641 73.9138 23.2455C73.9138 23.5268 73.8617 23.7725 73.7576 23.9827C73.6533 24.1929 73.5073 24.3552 73.3199 24.4698C73.1324 24.5844 72.9153 24.6419 72.6686 24.6419C72.4636 24.6419 72.2873 24.5887 72.1399 24.483C71.9922 24.377 71.8749 24.232 71.788 24.0479V25.9077L72.2779 25.9599V26.0642H70.9023V25.9599Z" fill="black"/>
<path d="M76.397 24.329C76.496 24.2734 76.5802 24.1927 76.6497 24.0868C76.7192 23.9807 76.7608 23.8533 76.7748 23.7038V23.162H76.4257C76.1408 23.162 75.9282 23.2254 75.7874 23.3522C75.6469 23.4789 75.5766 23.657 75.5766 23.8861C75.5766 24.0771 75.6216 24.2127 75.7119 24.2925C75.8022 24.3725 75.9342 24.4124 76.108 24.4124C76.2017 24.4124 76.298 24.3847 76.397 24.329ZM75.2744 24.467C75.1319 24.3508 75.0605 24.1779 75.0605 23.9486C75.0605 23.6222 75.1978 23.3904 75.4723 23.2533C75.7465 23.1159 76.0643 23.0474 76.4257 23.0474H76.7748V22.6462C76.7748 22.4656 76.7548 22.3257 76.7149 22.2267C76.6749 22.1278 76.6133 22.0584 76.5299 22.0184C76.4466 21.9785 76.3337 21.9584 76.1911 21.9584C76.0279 21.9584 75.9063 21.9906 75.8265 22.0548C75.7465 22.1191 75.7067 22.2052 75.7067 22.3127C75.7067 22.4135 75.7553 22.4795 75.8525 22.5107C75.8525 22.5975 75.8196 22.6739 75.7537 22.7401C75.6876 22.806 75.6094 22.8389 75.5191 22.8389C75.4219 22.8389 75.3436 22.8121 75.2847 22.7583C75.2256 22.7045 75.1962 22.622 75.1962 22.5107C75.1962 22.3094 75.2969 22.1479 75.4982 22.0263C75.6997 21.9046 75.9515 21.8439 76.2537 21.8439C76.9483 21.8439 77.2959 22.1461 77.2959 22.7504V24.2403C77.2959 24.3168 77.3122 24.375 77.3453 24.4151C77.3782 24.4548 77.426 24.4749 77.4885 24.4749C77.5476 24.4749 77.5944 24.4548 77.6292 24.4151C77.6639 24.375 77.6813 24.3204 77.6813 24.2509H77.7906C77.7906 24.3725 77.7515 24.4679 77.6736 24.5373C77.5952 24.6068 77.4867 24.6416 77.3478 24.6416C77.1879 24.6416 77.0535 24.5955 76.944 24.5036C76.8347 24.4114 76.7781 24.2683 76.7748 24.0738C76.6913 24.2509 76.5636 24.3899 76.3918 24.4906C76.2199 24.5913 76.0298 24.6416 75.8213 24.6416C75.5991 24.6416 75.4167 24.5835 75.2744 24.467Z" fill="black"/>
</svg>
