<svg width="148" height="41" viewBox="0 0 148 41" fill="none" xmlns="http://www.w3.org/2000/svg">
<path d="M26.1209 21.3652C26.1004 21.3427 26.0826 21.3235 26.0618 21.301H26.0596L17.0996 11.9636L24.5496 4.13425H24.5545C24.6078 4.07602 24.6548 4.02598 24.7067 3.96963L26.4883 2.09723C27.8636 0.720573 28.1773 0.617136 28.1773 0.617136H27.8968H27.7709H26.3587H23.3172L15.0602 9.76975L6.90384 0.617136H3.76045H2.34806H2.29066H1.94171C1.94171 0.617136 2.3821 0.757578 4.5422 3.03532L5.45004 4.01021C5.4894 4.05331 5.52425 4.09052 5.56444 4.13425H5.56567L12.8876 11.9979L4.13052 21.301H4.12273C3.99192 21.4442 3.87158 21.5737 3.74979 21.7055L2.83827 22.6739C0.909429 24.6823 0.5 24.8184 0.5 24.8184H0.819629H0.906353H2.31874H5.3996L15.0268 14.226L24.7212 24.8184H27.866H29.2782H29.4345H29.6846C29.6846 24.8184 29.4246 24.7317 28.3476 23.6856L26.1209 21.3652Z" fill="black"/>
<path d="M145.494 12.9236C144.157 11.804 142.262 11.1184 139.811 10.8668L132.49 10.1469C131.777 10.0782 131.186 9.99259 130.718 9.88978C130.251 9.78676 129.76 9.62719 129.248 9.4098C128.735 9.19283 128.35 8.87305 128.094 8.45005C127.838 8.02747 127.71 7.50712 127.71 6.89028C127.71 6.11365 127.944 5.44529 128.412 4.88479C128.88 4.32513 129.509 3.9078 130.301 3.63365C131.091 3.35928 131.91 3.15977 132.758 3.03383C133.605 2.90853 134.507 2.84525 135.465 2.84525C137.448 2.84525 139.109 3.11961 140.446 3.66792C140.605 3.73288 140.761 3.80247 140.917 3.87522L140.915 3.87606C143.971 5.4209 143.488 6.44562 143.488 6.44562L143.86 6.27953L145.165 5.72407L145.164 5.72071L147.232 4.86776C145.003 1.62312 141.07 5.91278e-05 135.432 5.91278e-05C132.111 5.91278e-05 129.515 0.526081 127.643 1.57707C125.459 2.76535 124.367 4.59361 124.367 7.06162C124.367 8.70696 124.924 10.0559 126.039 11.1067C126.595 11.6327 127.292 12.0439 128.128 12.3408C128.963 12.638 129.754 12.8378 130.501 12.9406C131.248 13.0434 132.579 13.1864 134.496 13.3691L138.106 13.7117C138.953 13.7805 139.672 13.8722 140.262 13.9861C140.853 14.1007 141.482 14.2893 142.151 14.5517C142.82 14.8147 143.326 15.1975 143.672 15.7C144.017 16.2031 144.19 16.8199 144.19 17.5512C144.19 18.8767 143.655 19.9626 142.586 20.8076C141.181 21.9046 139.076 22.4531 136.268 22.4531C133.593 22.4531 131.331 22.0648 129.482 21.2878C129.184 21.1658 128.907 21.0384 128.645 20.9074C128.32 20.739 128.03 20.5759 127.784 20.4212C127.782 20.4199 127.78 20.4191 127.778 20.4178C125.825 19.1873 126.195 18.4031 126.195 18.4031L125.823 18.5689L124.519 19.1244L122.629 19.9164C123.743 21.7907 125.504 23.173 127.91 24.0642C130.317 24.9556 132.992 25.4011 135.933 25.4011C138.117 25.4011 140 25.1667 141.583 24.6983C143.165 24.2303 144.368 23.6015 145.193 22.8133C146.017 22.0247 146.608 21.1965 146.965 20.3278C147.321 19.4595 147.5 18.5229 147.5 17.5169C147.5 15.5747 146.831 14.0435 145.494 12.9236Z" fill="black"/>
<path d="M57.571 0.617136H56.1587H54.3698C54.3698 1.43981 54.4033 8.10191 54.4703 20.602L36.118 0.617136H32.6749V21.301C32.6749 24.6361 32.2686 24.8184 32.2686 24.8184H32.6749H34.0873H35.8839C35.8839 23.6305 35.8616 16.957 35.8171 4.79924L54.303 24.8184H57.579V3.40787C57.6336 0.778391 57.9772 0.617136 57.9772 0.617136H57.579H57.571Z" fill="black"/>
<path d="M95.1045 0.617136H94.6992H94.6983H93.2859H92.9308H91.5187H91.5176H91.1123C91.1123 0.617136 91.5074 0.800676 91.5176 4.01231V21.4232C91.5074 24.6348 91.1123 24.8184 91.1123 24.8184H91.5176H91.5187H92.9308H93.2859H94.6983H94.6992H95.1045C95.1045 24.8184 94.7094 24.6348 94.6992 21.4232V4.01231C94.7094 0.800676 95.1045 0.617136 95.1045 0.617136Z" fill="black"/>
<path d="M116.643 21.5561H103.855V4.13446H103.857C103.857 0.799627 104.264 0.617348 104.264 0.617348H103.857H103.855H102.445H102.09H100.678H100.667H100.271C100.271 0.617348 100.606 0.776291 100.667 3.30864V22.1271C100.606 24.6594 100.271 24.8184 100.271 24.8184H100.667H100.678H102.09H119.688V23.0073V21.559V21.5561V21.1425C119.688 21.1425 119.517 21.5239 116.643 21.5561Z" fill="black"/>
<path d="M68.5222 16.0772L74.4055 4.07917L80.1887 16.0772H68.5222ZM86.642 21.301H86.62L76.2775 0.617136H72.7007L61.6681 22.4401C60.4439 24.6781 60.0645 24.8184 60.0645 24.8184H60.4659H60.4706H61.883H64.2432L67.1182 18.8538H81.6261L84.5009 24.8184H87.0284H88.3787H88.4408H88.847C88.847 24.8184 88.3475 24.6361 86.642 21.301Z" fill="black"/>
<path d="M33.2993 38.419C32.9854 38.2365 32.737 37.9772 32.5535 37.6419C32.37 37.3066 32.2783 36.9233 32.2783 36.4925C32.2783 36.0397 32.3751 35.6471 32.5695 35.3143C32.7634 34.9817 33.0174 34.7294 33.3313 34.5579C33.645 34.3859 33.9827 34.3001 34.3445 34.3001C34.6478 34.3001 34.9241 34.3531 35.174 34.4593C35.424 34.5659 35.6222 34.7145 35.7686 34.9054C35.9148 35.0965 35.9878 35.3118 35.9878 35.5515C35.9878 35.7317 35.9427 35.8696 35.8523 35.9648C35.7616 36.0603 35.6421 36.1078 35.4933 36.1078C35.3495 36.1078 35.23 36.0588 35.1345 35.9606C35.0385 35.8624 34.9905 35.7397 34.9905 35.5925C35.0705 35.538 35.1263 35.4781 35.1583 35.4125C35.1902 35.3471 35.206 35.2654 35.206 35.1672C35.206 34.9655 35.1275 34.8003 34.9707 34.6723C34.814 34.544 34.6051 34.4799 34.3445 34.4799C33.9615 34.4799 33.6677 34.6203 33.4629 34.9012C33.2581 35.1823 33.1558 35.5763 33.1558 36.0834V36.9014C33.1558 37.3871 33.2557 37.7769 33.4549 38.0712C33.6546 38.366 33.9509 38.5131 34.3445 38.5131C34.7062 38.5131 35.0211 38.4082 35.2901 38.1982C35.5583 37.9882 35.7247 37.7115 35.7885 37.3678H35.972C35.8974 37.7714 35.7126 38.0931 35.4174 38.3332C35.1224 38.5733 34.7644 38.6931 34.3445 38.6931C33.9615 38.6931 33.6132 38.6019 33.2993 38.419Z" fill="black"/>
<path d="M38.5902 38.6113V38.4476L39.2285 38.366V34.5783H38.5425L37.8485 35.9278H37.625L37.7447 34.3735H41.5102L41.6299 35.9278H41.4064L40.7044 34.5783H40.0264V38.366L40.6646 38.4476V38.6113H38.5902Z" fill="black"/>
<path d="M43.4388 40.7874C43.2685 40.6455 43.1834 40.4546 43.1834 40.2145C43.1834 40.0512 43.2299 39.9187 43.3232 39.8178C43.4161 39.7169 43.5317 39.6667 43.6701 39.6667C43.771 39.6667 43.8616 39.6883 43.9414 39.732C44.0213 39.7756 44.0851 39.8412 44.1328 39.9282C44.0531 40.043 44.0131 40.1626 44.0131 40.2883C44.0131 40.3975 44.0478 40.4874 44.1171 40.5583C44.1859 40.6289 44.2737 40.6647 44.3801 40.6647C44.5078 40.6647 44.6181 40.6209 44.7112 40.5337C44.8041 40.4464 44.8881 40.2936 44.9626 40.0756L45.4413 38.6684L43.5904 34.6272L43.0557 34.5454V34.3816H45.0423V34.5454L44.4838 34.6436L45.8161 37.5642L46.7655 34.7498L46.0795 34.5454V34.3816H47.5153V34.5454L46.9728 34.7498L45.1858 40.0756C45.0743 40.3975 44.9398 40.6319 44.7832 40.779C44.6261 40.9266 44.4014 41 44.1089 41C43.8323 41 43.609 40.9291 43.4388 40.7874Z" fill="black"/>
<path d="M51.4398 34.5784H50.1152L50.0279 35.8708C49.9903 36.4489 49.9479 36.8757 49.9001 37.1511C49.8521 37.4268 49.7935 37.6572 49.7246 37.8426C49.6766 37.9627 49.6248 38.0646 49.569 38.1494C49.5132 38.2337 49.4653 38.2953 49.4253 38.3333C49.3855 38.3714 49.3601 38.3962 49.3496 38.4071H51.4398V34.5784ZM52.9236 39.9614H52.7001L51.9983 38.6115H49.4292L48.7352 39.9614H48.5117L48.6317 38.4071H48.8867C49.0038 38.4071 49.1184 38.3552 49.2299 38.2513C49.3414 38.1479 49.4399 37.998 49.5251 37.8016C49.5996 37.6217 49.6592 37.398 49.7045 37.1307C49.7496 36.8635 49.7911 36.4437 49.8282 35.8708L49.8921 34.8892L49.1661 34.5374V34.3736H52.7958V34.5374L52.2376 34.619V38.4071H52.804L52.9236 39.9614Z" fill="black"/>
<path d="M54.458 38.6113V38.4476L55.0167 38.366V34.6189L54.458 34.5373V34.3735H56.2932V34.5373L55.8142 34.6189V37.8015L57.8329 34.7826V34.6189L57.3539 34.5373V34.3735H59.1891V34.5373L58.6304 34.6189V38.366L59.1891 38.4476V38.6113H57.3539V38.4476L57.8329 38.366V35.1262L55.8142 38.1532V38.366L56.2932 38.4476V38.6113H54.458Z" fill="black"/>
<path d="M63.8467 36.4597V34.5783H63.1765C62.8681 34.5783 62.6406 34.6491 62.4942 34.7908C62.348 34.9328 62.275 35.159 62.275 35.4699V35.5761C62.275 35.8816 62.3494 36.1053 62.4983 36.247C62.6471 36.3889 62.852 36.4597 63.1125 36.4597H63.8467ZM61.0623 38.5989C60.9239 38.5365 60.8044 38.445 60.7031 38.325L60.8231 38.2022C60.9188 38.3004 61.0117 38.3494 61.1021 38.3494C61.1821 38.3494 61.2419 38.3197 61.2819 38.2594C61.3217 38.1997 61.36 38.0796 61.3975 37.8997L61.4853 37.4252C61.5331 37.1579 61.6208 36.9588 61.7483 36.8279C61.8761 36.6969 62.0835 36.6098 62.3708 36.5659V36.5251C62.0889 36.4759 61.8588 36.3697 61.6805 36.206C61.5025 36.0424 61.4133 35.8025 61.4133 35.4861C61.4133 35.1207 61.5331 34.844 61.7723 34.6559C62.0116 34.4677 62.3999 34.3735 62.9372 34.3735H65.2189V34.5455L64.6445 34.6273V38.3578L65.2189 38.4476V38.6113H63.2722V38.4476L63.8467 38.3578V36.6641H63.1125C62.8839 36.6641 62.707 36.716 62.5821 36.8199C62.4571 36.9233 62.3759 37.0951 62.3388 37.3352L62.2193 38.0306C62.1766 38.2705 62.0995 38.4408 61.9878 38.5417C61.8761 38.6427 61.7032 38.6931 61.4691 38.6931C61.3362 38.6931 61.2007 38.6618 61.0623 38.5989Z" fill="black"/>
<path d="M69.6631 38.6113V38.4476L70.2693 38.2022V34.6109L69.7109 34.5373V34.3735H71.2586L72.5192 37.4333L73.7715 34.3735H75.2397V34.5373L74.681 34.6189V38.366L75.2397 38.4476V38.6113H73.4045V38.4476L73.8834 38.366V34.6437L72.2318 38.6113H72.1361L70.4688 34.6437V38.2022L71.0751 38.4476V38.6113H69.6631Z" fill="black"/>
<path d="M78.9196 38.2022C79.0711 38.115 79.2 37.9882 79.3064 37.8219C79.4129 37.6554 79.4766 37.4552 79.4979 37.2206V36.3697H78.9632C78.5272 36.3697 78.2016 36.4694 77.9861 36.6685C77.7708 36.8674 77.663 37.147 77.663 37.5067C77.663 37.8067 77.7321 38.0197 77.8703 38.145C78.0087 38.2705 78.2108 38.3332 78.4769 38.3332C78.6204 38.3332 78.7679 38.2897 78.9196 38.2022ZM77.2005 38.419C76.9823 38.2365 76.873 37.9651 76.873 37.6049C76.873 37.0923 77.0832 36.7284 77.5035 36.5131C77.9234 36.2974 78.4101 36.1898 78.9632 36.1898H79.4979V35.5599C79.4979 35.2763 79.4672 35.0566 79.4063 34.9012C79.345 34.7458 79.2507 34.6369 79.123 34.5741C78.9952 34.5114 78.8224 34.4799 78.6042 34.4799C78.3543 34.4799 78.1682 34.5304 78.046 34.6313C77.9234 34.7322 77.8625 34.8674 77.8625 35.0362C77.8625 35.1945 77.9369 35.2981 78.0857 35.3471C78.0857 35.4834 78.0353 35.6034 77.9344 35.7073C77.8332 35.8107 77.7134 35.8624 77.5752 35.8624C77.4262 35.8624 77.3065 35.8204 77.2163 35.7359C77.1258 35.6514 77.0807 35.5218 77.0807 35.3471C77.0807 35.0309 77.2349 34.7774 77.5433 34.5865C77.8518 34.3954 78.2373 34.3001 78.7 34.3001C79.7636 34.3001 80.2959 34.7747 80.2959 35.7235V38.063C80.2959 38.1831 80.3209 38.2745 80.3715 38.3374C80.4218 38.3998 80.4952 38.4314 80.5909 38.4314C80.6813 38.4314 80.7531 38.3998 80.8064 38.3374C80.8593 38.2745 80.8861 38.1887 80.8861 38.0796H81.0534C81.0534 38.2705 80.9936 38.4204 80.874 38.5293C80.7543 38.6385 80.588 38.6931 80.3754 38.6931C80.1306 38.6931 79.9248 38.6208 79.7571 38.4764C79.5898 38.3317 79.5031 38.107 79.4979 37.8015C79.3702 38.0796 79.1746 38.2979 78.9116 38.456C78.6483 38.6141 78.357 38.6931 78.038 38.6931C77.6976 38.6931 77.4184 38.6019 77.2005 38.419Z" fill="black"/>
<path d="M82.582 38.6113V38.4476L83.1405 38.366V34.6189L82.582 34.5373V34.3735H84.4168V34.5373L83.9382 34.6189V36.3618H85.9087V34.6189L85.4302 34.5373V34.3735H87.2649V34.5373L86.7067 34.6189V38.366L87.2649 38.4476V38.6113H85.4302V38.4476L85.9087 38.366V36.5661H83.9382V38.366L84.4168 38.4476V38.6113H82.582Z" fill="black"/>
<path d="M88.9219 38.6113V38.4476L89.4806 38.366V34.6189L88.9219 34.5373V34.3735H90.757V34.5373L90.2781 34.6189V37.8015L92.2967 34.7826V34.6189L91.8178 34.5373V34.3735H93.6529V34.5373L93.0943 34.6189V38.366L93.6529 38.4476V38.6113H91.8178V38.4476L92.2967 38.366V35.1262L90.2781 38.1532V38.366L90.757 38.4476V38.6113H88.9219Z" fill="black"/>
<path d="M98.5095 38.5417C98.398 38.4408 98.3209 38.2705 98.2782 38.0306L98.1187 37.1632C98.071 36.9069 97.991 36.7269 97.8793 36.6233C97.7677 36.5199 97.6162 36.465 97.4245 36.4597H96.6825V38.3578L97.2572 38.4476V38.6113H95.3105V38.4476L95.885 38.3578V34.6273L95.3105 34.5455V34.3735H97.2572V34.5455L96.6825 34.6273V36.2716H97.4327C97.5656 36.2606 97.672 36.2129 97.7517 36.1284C97.8313 36.0439 97.8977 35.8982 97.9512 35.6907L98.0947 35.1018C98.1587 34.8346 98.245 34.634 98.3539 34.5003C98.463 34.3668 98.6321 34.3001 98.8607 34.3001C99.052 34.3001 99.201 34.3531 99.3074 34.4593C99.4138 34.5659 99.4667 34.6954 99.4667 34.848C99.4667 34.9899 99.4231 35.1112 99.3353 35.2122C99.2476 35.3131 99.1291 35.3633 98.9804 35.3633C98.9005 35.3633 98.8234 35.3499 98.749 35.3223C98.765 35.2733 98.7727 35.2271 98.7727 35.1836C98.7727 35.1127 98.7514 35.0526 98.7092 35.0036C98.6665 34.9546 98.6134 34.9298 98.5495 34.9298C98.4217 34.9298 98.3367 35.0063 98.2942 35.159L98.1425 35.7481C98.0734 36.0043 97.9832 36.1843 97.8713 36.288C98.2225 36.3208 98.4789 36.4078 98.6413 36.5497C98.8035 36.6916 98.9111 36.9069 98.9642 37.196L99.1 37.8997C99.1371 38.0796 99.1756 38.1997 99.2156 38.2594C99.2554 38.3197 99.3154 38.3494 99.3952 38.3494C99.4854 38.3494 99.5787 38.3004 99.6744 38.2022L99.7942 38.325C99.6929 38.445 99.5731 38.5365 99.4352 38.5989C99.2968 38.6618 99.1611 38.6931 99.0282 38.6931C98.7941 38.6931 98.6214 38.6427 98.5095 38.5417Z" fill="black"/>
<path d="M106.398 38.0796C106.6 37.7906 106.701 37.3976 106.701 36.9014V36.0834C106.701 35.5818 106.6 35.189 106.398 34.9054C106.196 34.6218 105.901 34.4799 105.512 34.4799C105.124 34.4799 104.829 34.6218 104.627 34.9054C104.425 35.189 104.324 35.5818 104.324 36.0834V36.9014C104.324 37.3976 104.425 37.7906 104.627 38.0796C104.829 38.3687 105.124 38.5131 105.512 38.5131C105.901 38.5131 106.196 38.3687 106.398 38.0796ZM104.037 38.0878C103.659 37.6842 103.462 37.1771 103.446 36.5661H102.688V38.366L103.167 38.4476V38.6113H101.332V38.4476L101.891 38.366V34.6189L101.332 34.5373V34.3735H103.167V34.5373L102.688 34.6189V36.3615H103.446C103.467 35.9524 103.571 35.5925 103.757 35.2818C103.943 34.9708 104.19 34.7294 104.496 34.5577C104.801 34.3859 105.14 34.3001 105.512 34.3001C105.896 34.3001 106.245 34.3929 106.562 34.5783C106.878 34.7635 107.127 35.024 107.308 35.3595C107.488 35.6949 107.579 36.0725 107.579 36.4925C107.579 36.9126 107.488 37.29 107.308 37.6253C107.127 37.9611 106.879 38.2226 106.566 38.4108C106.252 38.5989 105.901 38.6931 105.512 38.6931C104.938 38.6931 104.446 38.4913 104.037 38.0878Z" fill="black"/>
<path d="M112.803 36.9099V36.0916C112.803 35.0337 112.433 34.5045 111.694 34.5045C111.46 34.5045 111.247 34.5741 111.056 34.7133C110.865 34.8523 110.713 35.039 110.601 35.2734C110.49 35.5082 110.431 35.7616 110.426 36.0345V36.9099C110.426 37.1878 110.48 37.4485 110.589 37.6912C110.698 37.9336 110.85 38.1274 111.044 38.2718C111.238 38.4165 111.455 38.4886 111.694 38.4886C112.433 38.4886 112.803 37.9626 112.803 36.9099ZM109.069 40.763L109.628 40.681V34.6273L109.069 34.5455V34.3818H110.426V35.241C110.559 34.9463 110.738 34.716 110.964 34.5495C111.19 34.3832 111.46 34.3002 111.774 34.3002C112.152 34.3002 112.484 34.3916 112.771 34.5741C113.058 34.757 113.282 35.0133 113.441 35.343C113.601 35.6731 113.681 36.0588 113.681 36.5008C113.681 36.9425 113.601 37.3283 113.441 37.6584C113.282 37.9884 113.058 38.2432 112.771 38.4232C112.484 38.6032 112.152 38.6934 111.774 38.6934C111.46 38.6934 111.19 38.6099 110.964 38.4438C110.738 38.2775 110.559 38.0498 110.426 37.7607V40.681L111.176 40.763V40.9268H109.069V40.763Z" fill="black"/>
<path d="M117.483 38.2022C117.635 38.115 117.764 37.9882 117.87 37.8219C117.976 37.6554 118.04 37.4552 118.061 37.2206V36.3697H117.527C117.091 36.3697 116.765 36.4694 116.55 36.6685C116.334 36.8674 116.227 37.147 116.227 37.5067C116.227 37.8067 116.296 38.0197 116.434 38.145C116.572 38.2705 116.774 38.3332 117.04 38.3332C117.184 38.3332 117.331 38.2897 117.483 38.2022ZM115.764 38.419C115.546 38.2365 115.437 37.9651 115.437 37.6049C115.437 37.0923 115.647 36.7284 116.067 36.5131C116.487 36.2974 116.974 36.1898 117.527 36.1898H118.061V35.5599C118.061 35.2763 118.031 35.0566 117.97 34.9012C117.908 34.7458 117.814 34.6369 117.686 34.5741C117.559 34.5114 117.386 34.4799 117.168 34.4799C116.918 34.4799 116.732 34.5304 116.609 34.6313C116.487 34.7322 116.426 34.8674 116.426 35.0362C116.426 35.1945 116.5 35.2981 116.649 35.3471C116.649 35.4834 116.599 35.6034 116.498 35.7073C116.397 35.8107 116.277 35.8624 116.139 35.8624C115.99 35.8624 115.87 35.8204 115.78 35.7359C115.689 35.6514 115.644 35.5218 115.644 35.3471C115.644 35.0309 115.798 34.7774 116.107 34.5865C116.415 34.3954 116.801 34.3001 117.263 34.3001C118.327 34.3001 118.859 34.7747 118.859 35.7235V38.063C118.859 38.1831 118.884 38.2745 118.935 38.3374C118.985 38.3998 119.059 38.4314 119.154 38.4314C119.245 38.4314 119.317 38.3998 119.37 38.3374C119.423 38.2745 119.45 38.1887 119.45 38.0796H119.617C119.617 38.2705 119.557 38.4204 119.438 38.5293C119.318 38.6385 119.152 38.6931 118.939 38.6931C118.694 38.6931 118.488 38.6208 118.321 38.4764C118.153 38.3317 118.067 38.107 118.061 37.8015C117.934 38.0796 117.738 38.2979 117.475 38.456C117.212 38.6141 116.921 38.6931 116.601 38.6931C116.261 38.6931 115.982 38.6019 115.764 38.419Z" fill="black"/>
</svg>
